# xmcd
#
# Track frame offsets:
#	150
#	17780
#	37584
#	56181
#	72246
#	86621
#	102077
#	118116
#	135972
#	154159
#	171830
#
# Disc length: 2524 seconds
#
# Revision: 1
# Processed by: cddbd v1.5.2PL0 Copyright (c) Steve Scherf et al.
# Submitted via: EasyCDDAExtractor 15.3.0.1
#
DISCID=8709da0b
DTITLE=MDO - Subir Al Cielo
DYEAR=2000
DGENRE=Latin
TTITLE0=Cuatro Paredes
TTITLE1=Te Quise Olvidar
TTITLE2=Dejame Subirte Al Cielo
TTITLE3=Mi Amor Tu Vas A Extrañar
TTITLE4=Baila
TTITLE5=Sin Ti
TTITLE6=Tonight, Te Amare
TTITLE7=Es La Cosa
TTITLE8=Yo No Tengo Corazon
TTITLE9=Someone Help Me!
TTITLE10=Lock All The Doors
EXTD=0
EXTT0=
EXTT1=
EXTT2=
EXTT3=
EXTT4=
EXTT5=
EXTT6=
EXTT7=
EXTT8=
EXTT9=
EXTT10=
PLAYORDER=
